<?xml version="1.0" encoding="utf-8"?>
<!-- Generator: Adobe Illustrator 24.2.1, SVG Export Plug-In . SVG Version: 6.00 Build 0)  -->
<svg version="1.1" xmlns="http://www.w3.org/2000/svg" xmlns:xlink="http://www.w3.org/1999/xlink" x="0px" y="0px"
	 viewBox="0 0 360 360" style="enable-background:new 0 0 360 360;" xml:space="preserve">
<g id="Layer_1">
</g>
<g id="Layer_2">
	<path d="M341.5,124.9l-161.5,0l-161.5,0c0,0-18.5-1.4-18.5,13s18.5,11.6,18.5,11.6S7.9,217,51.4,243.9c-6,41.2-6.9,55.1-6.9,55.1
		h18.5l26.4-40.7H180h90.7l26.4,40.7h18.5c0,0-0.9-13.9-6.9-55.1c43.5-26.8,32.9-94.4,32.9-94.4s18.5,2.8,18.5-11.6
		S341.5,124.9,341.5,124.9z"/>
	<path d="M67.7,108.7H54.4V98.4c0,0-0.2-11.9-9.1-11.9c-9.5,0-9.7,11.3-9.7,11.3v34H21V96.9c0,0-0.1-24.1,23.4-24.1
		c22.4,0,23.4,25.4,23.4,25.4V108.7z"/>
</g>
</svg>
