<?xml version="1.0" encoding="utf-8"?>
<!-- Generator: Adobe Illustrator 24.2.1, SVG Export Plug-In . SVG Version: 6.00 Build 0)  -->
<svg version="1.1" id="Layer_2_1_" xmlns="http://www.w3.org/2000/svg" xmlns:xlink="http://www.w3.org/1999/xlink" x="0px" y="0px"
	 viewBox="0 0 293.4 360" style="enable-background:new 0 0 293.4 360;" xml:space="preserve">
<style type="text/css">
	.st0{fill:#FFFFFF;}
	.st1{fill:none;stroke:#000000;stroke-miterlimit:10;}
	.st2{fill:none;stroke:#858585;stroke-miterlimit:10;}
</style>
<rect x="91.7" y="131.4" class="st0" width="110" height="148"/>
<path d="M275.1,313.1h-17.1l-32.9-211.9l34.6-29.5L260.1,0h-44.7v44.3h-46.6V0h-44.3v44.3H79.3V0H34.6v71.7l33.8,29.5L34.6,312.9
	L17.6,313L0,360h293.4L275.1,313.1z M178.3,251.8h-63.2v-60.4c0-17.5,14.1-32.4,31.6-32.4s31.6,15,31.6,32.4L178.3,251.8z"/>
<path class="st1" d="M275.5,357.3"/>
<path class="st1" d="M275.5,69"/>
<path class="st1" d="M18,360"/>
<path class="st1" d="M18,71.7"/>
<path class="st2" d="M125.1-1.6"/>
<path class="st2" d="M125.1,311.3"/>
<path class="st2" d="M148,0"/>
<path class="st2" d="M147.1,131"/>
</svg>
