<?xml version="1.0" encoding="utf-8"?>
<!-- Generator: Adobe Illustrator 24.2.1, SVG Export Plug-In . SVG Version: 6.00 Build 0)  -->
<svg version="1.1" id="Layer_1" xmlns="http://www.w3.org/2000/svg" xmlns:xlink="http://www.w3.org/1999/xlink" x="0px" y="0px"
	 viewBox="0 0 360 360" style="enable-background:new 0 0 360 360;" xml:space="preserve">
<style type="text/css">
	.st0{fill:#FFFFFF;}
</style>
<rect y="171.7" width="360" height="188.3"/>
<path class="st0" d="M180,211.4c28.3,7.7,39.2,33.7,43.1,48.2c1.4,5.2,2.1,10.5,2.1,15.8V360h-90.3v-84.6c0-5.3,0.7-10.7,2.1-15.8
	C140.8,245.1,151.7,219.1,180,211.4"/>
<rect x="51.4" y="278.1" class="st0" width="32" height="54.3"/>
<rect x="276.6" y="278.1" class="st0" width="32" height="54.3"/>
<rect x="74.3" y="153.1" width="18.6" height="18.6"/>
<rect x="37.1" y="153.1" width="18.6" height="18.6"/>
<rect x="112.1" y="153.1" width="18.6" height="18.6"/>
<rect y="153.1" width="18.6" height="18.6"/>
<rect x="267.1" y="153.1" transform="matrix(-1 -4.485668e-11 4.485668e-11 -1 552.8484 324.8042)" width="18.6" height="18.6"/>
<rect x="304.3" y="153.1" transform="matrix(-1 -4.490598e-11 4.490598e-11 -1 627.138 324.8042)" width="18.6" height="18.6"/>
<rect x="229.4" y="153.1" transform="matrix(-1 -4.490598e-11 4.490598e-11 -1 477.2768 324.8042)" width="18.6" height="18.6"/>
<rect x="341.4" y="153.1" transform="matrix(-1 -4.485668e-11 4.485668e-11 -1 701.4276 324.8042)" width="18.6" height="18.6"/>
<rect x="148.9" y="135.8" width="62.2" height="35.8"/>
<rect x="141.8" y="130.8" width="76.5" height="11.5"/>
</svg>
