<?xml version="1.0" encoding="utf-8"?>
<!-- Generator: Adobe Illustrator 24.2.1, SVG Export Plug-In . SVG Version: 6.00 Build 0)  -->
<svg version="1.1" id="Layer_1" xmlns="http://www.w3.org/2000/svg" xmlns:xlink="http://www.w3.org/1999/xlink" x="0px" y="0px"
	 viewBox="0 0 360 360" style="enable-background:new 0 0 360 360;" xml:space="preserve">
<style type="text/css">
	.st0{fill:#FFFFFF;}
</style>
<rect x="146.4" y="257.2" class="st0" width="67" height="102.8"/>
<rect x="133.5" y="147.2" class="st0" width="92.7" height="63.7"/>
<rect x="296.5" y="174.9" class="st0" width="34.1" height="34.1"/>
<rect x="34.6" y="176.9" class="st0" width="34.1" height="34.1"/>
<path d="M174.2,87.7l-55.5,50.8v65.8h-45v-35.9h-0.1c-1-20-11.8-35.7-24.9-35.7s-23.9,15.7-24.9,35.7h-0.1v35.9V360h125.2v-66.1
	c0-16.9,14-30.6,31.2-30.6s31.2,13.7,31.2,30.6V360h125.2V204.4v-35.9h-0.1c-1-20-11.8-35.7-24.9-35.7s-23.9,15.7-24.9,35.7h-0.1
	v35.9h-43.8v-65.8l-56.7-50.8 M48.7,200.4c-6.1,0-11.1-5-11.1-11.1c0-6.1,5-11.1,11.1-11.1s11.1,5,11.1,11.1
	C59.7,195.4,54.8,200.4,48.7,200.4z M169,197.4h-24.8v-31.6c0-8.1,5.5-14.6,12.4-14.6s12.4,6.6,12.4,14.6V197.4z M219,197.4h-24.8
	v-31.6c0-8.1,5.5-14.6,12.4-14.6s12.4,6.6,12.4,14.6V197.4z M311.3,200.4c-6.1,0-11.1-5-11.1-11.1c0-6.1,5-11.1,11.1-11.1
	s11.1,5,11.1,11.1C322.4,195.4,317.5,200.4,311.3,200.4z"/>
<polygon points="198.5,10.8 198.5,20.9 185.8,20.9 185.8,31.2 208.8,31.2 208.8,41.2 185.8,41.2 185.8,65.2 198.5,70.1 198.5,81.5 
	185.8,76.8 185.8,93.3 174.2,93.3 174.2,72.8 161.5,68.2 161.5,55.9 174.4,61 174.4,41.2 151.2,41.2 151.2,31 174,31 174,20.9 
	161.1,20.9 161.1,10.8 174,10.8 174,0 185.8,0 185.8,10.8 "/>
</svg>
