<?xml version="1.0" encoding="utf-8"?>
<!-- Generator: Adobe Illustrator 24.2.1, SVG Export Plug-In . SVG Version: 6.00 Build 0)  -->
<svg version="1.1" xmlns="http://www.w3.org/2000/svg" xmlns:xlink="http://www.w3.org/1999/xlink" x="0px" y="0px"
	 viewBox="0 0 360 360" style="enable-background:new 0 0 360 360;" xml:space="preserve">
<style type="text/css">
	.st0{fill:#FFFFFF;}
	.st1{fill:none;}
	.st2{display:none;}
	.st3{display:inline;}
	.st4{fill:none;stroke:#FF0000;stroke-miterlimit:10;}
</style>
<g id="Layer_1">
	<rect x="151.2" y="269.8" class="st0" width="55.4" height="90.2"/>
	<polygon points="8.2,360 79.2,360 79.2,255.1 8.2,291.7 	"/>
	<path d="M174.2,86.3l-95,72.1v92.4l0,0V360h0h7.9h66.2v-45.1c0-13.2,11.9-26.3,26.6-26.3c14.7,0,26.6,13.1,26.6,26.3V360h74.2
		V250.9v-92.4l-95-72.1"/>
	<polygon points="280.8,255.1 280.8,360 351.8,360 351.8,291.7 	"/>
	<line class="st1" x1="173" y1="31.7" x2="192.2" y2="31.7"/>
	<polygon points="198.5,10.8 198.5,20.9 185.8,20.9 185.8,31.2 208.8,31.2 208.8,41.2 185.8,41.2 185.8,65.2 198.5,70.1 198.5,81.5 
		185.8,76.8 185.8,93.3 174.2,93.3 174.2,72.8 161.5,68.2 161.5,55.9 174.4,61 174.4,41.2 151.2,41.2 151.2,31 174,31 174,20.9 
		161.1,20.9 161.1,10.8 174,10.8 174,0 185.8,0 185.8,10.8 	"/>
</g>
<g id="Layer_2" class="st2">
	<g id="abTVRV.tif" class="st3">
		<g>
			<g>
				<path class="st0" d="M97,121.1c-24.3,0-48.6,0-73,0c0-33.5,0-67,0-100.5c24.3,0,48.6,0,73,0C97,54.1,97,87.6,97,121.1z
					 M42.3,79.3c0,0.3,0,0.5,0,0.6c0,3.4,0,6.9,0,10.3c0,0.5,0.2,0.7,0.6,0.8c3.9,1.4,7.8,2.8,11.7,4.2c0.4,0.2,0.6,0.4,0.6,0.8
					c0,5.3,0,10.5,0,15.8c0,1.4,0,2.8,0,4.3c3.9,0,7.7,0,11.6,0c0-5.5,0-10.9,0-16.5c4.3,1.6,8.5,3.1,12.8,4.7c0-0.3,0-0.6,0-0.8
					c0-3.4,0-6.8,0-10.1c0-0.5-0.1-0.7-0.6-0.9c-3.9-1.4-7.8-2.8-11.6-4.2c-0.4-0.2-0.6-0.3-0.6-0.9c0-7.6,0-15.1,0-22.7
					c0-0.2,0-0.4,0-0.6c7.7,0,15.4,0,23.1,0c0-3.5,0-6.8,0-10.3c-7.7,0-15.4,0-23.1,0c0-3.5,0-6.8,0-10.3c4.3,0,8.5,0,12.8,0
					c0-0.2,0.1-0.3,0.1-0.4c0-3.1,0-6.3,0-9.4c0-0.5-0.3-0.5-0.6-0.5c-3.8,0-7.7,0-11.5,0c-0.2,0-0.4,0-0.7,0c0-2.4,0-4.7,0-7
					c-3.9,0-7.7,0-11.5,0c0,2.3,0,4.7,0,7c-0.3,0-0.6,0-0.8,0c-3.8,0-7.6,0-11.4,0c-0.5,0-0.6,0.1-0.6,0.6c0,2.9,0,5.9,0,8.8
					c0,0.3,0,0.5,0,0.9c4.3,0,8.6,0,12.8,0c0,3.5,0,6.8,0,10.3c-7.7,0-15.4,0-23,0c0,3.5,0,6.8,0,10.3c7.7,0,15.4,0,23.1,0
					c0,6.6,0,13.1,0,19.7C50.8,82.4,46.6,80.9,42.3,79.3z"/>
				<path d="M42.3,79.3c4.3,1.6,8.5,3.1,12.8,4.6c0-6.6,0-13.1,0-19.7c-7.7,0-15.3,0-23.1,0c0-3.5,0-6.8,0-10.3c7.7,0,15.4,0,23,0
					c0-3.4,0-6.8,0-10.3c-4.3,0-8.5,0-12.8,0c0-0.3,0-0.6,0-0.9c0-2.9,0-5.9,0-8.8c0-0.5,0.2-0.6,0.6-0.6c3.8,0,7.6,0,11.4,0
					c0.2,0,0.5,0,0.8,0c0-2.4,0-4.7,0-7c3.9,0,7.7,0,11.5,0c0,2.3,0,4.6,0,7c0.3,0,0.5,0,0.7,0c3.8,0,7.7,0,11.5,0
					c0.4,0,0.6,0,0.6,0.5c0,3.1,0,6.3,0,9.4c0,0.1,0,0.2-0.1,0.4c-4.3,0-8.5,0-12.8,0c0,3.4,0,6.8,0,10.3c7.7,0,15.3,0,23.1,0
					c0,3.5,0,6.8,0,10.3c-7.7,0-15.4,0-23.1,0c0,0.3,0,0.5,0,0.6c0,7.6,0,15.1,0,22.7c0,0.5,0.2,0.7,0.6,0.9
					c3.9,1.4,7.8,2.8,11.6,4.2c0.5,0.2,0.6,0.4,0.6,0.9c0,3.4,0,6.8,0,10.1c0,0.2,0,0.4,0,0.8c-4.3-1.6-8.5-3.1-12.8-4.7
					c0,5.6,0,11,0,16.5c-3.9,0-7.7,0-11.6,0c0-1.5,0-2.9,0-4.3c0-5.3,0-10.5,0-15.8c0-0.5-0.1-0.7-0.6-0.8
					c-3.9-1.4-7.8-2.8-11.7-4.2c-0.4-0.2-0.6-0.3-0.6-0.8c0-3.4,0-6.9,0-10.3C42.2,79.8,42.2,79.6,42.3,79.3z"/>
			</g>
		</g>
		<polygon class="st4" points="79.2,33.4 79.2,43.6 66.5,43.6 66.5,53.9 89.5,53.9 89.5,63.8 66.5,63.8 66.5,87.9 79.2,92.7 
			79.2,104.1 66.5,99.5 66.5,116 54.9,116 54.9,95.5 42.2,90.8 42.2,78.6 55.1,83.7 55.1,63.8 31.9,63.8 31.9,53.7 54.7,53.7 
			54.7,43.6 41.8,43.6 41.8,33.4 54.7,33.4 54.7,26.2 66.5,26.2 66.5,33.4 		"/>
	</g>
</g>
</svg>
