<?xml version="1.0" encoding="utf-8"?>
<!-- Generator: Adobe Illustrator 24.2.1, SVG Export Plug-In . SVG Version: 6.00 Build 0)  -->
<svg version="1.1" id="Layer_1" xmlns="http://www.w3.org/2000/svg" xmlns:xlink="http://www.w3.org/1999/xlink" x="0px" y="0px"
	 viewBox="0 0 360 360" style="enable-background:new 0 0 360 360;" xml:space="preserve">
<style type="text/css">
	.st0{fill:#FFFFFF;}
</style>
<path d="M338,100H22c-12.1,0-22,9.8-22,22v194.9V338v22h22h316h22v-22v-21.2V121.9C360,109.8,350.2,100,338,100z"/>
<path d="M237,199H122.1c-11.8,0-21.3-9.5-21.3-21.3V62.9c0-11.8,9.5-21.3,21.3-21.3H237c11.8,0,21.3,9.5,21.3,21.3v114.8
	C258.3,189.5,248.7,199,237,199z"/>
<rect x="57.7" y="275.6" class="st0" width="41.2" height="41.2"/>
<rect x="57.7" y="193.8" class="st0" width="41.2" height="41.2"/>
<rect x="159.5" y="275.6" class="st0" width="41.2" height="84.4"/>
<rect x="159.5" y="193.8" class="st0" width="41.2" height="41.2"/>
<rect x="260.2" y="275.6" class="st0" width="41.2" height="41.2"/>
<rect x="260.2" y="193.8" class="st0" width="41.2" height="41.2"/>
<polygon class="st0" points="211.2,111.1 188.7,111.1 188.7,88.6 170.4,88.6 170.4,111.1 147.9,111.1 147.9,129.5 170.4,129.5 
	170.4,152 188.7,152 188.7,129.5 211.2,129.5 "/>
</svg>
