<?xml version="1.0" encoding="utf-8"?>
<!-- Generator: Adobe Illustrator 24.2.1, SVG Export Plug-In . SVG Version: 6.00 Build 0)  -->
<svg version="1.1" id="Layer_1" xmlns="http://www.w3.org/2000/svg" xmlns:xlink="http://www.w3.org/1999/xlink" x="0px" y="0px"
	 viewBox="0 0 360 360" style="enable-background:new 0 0 360 360;" xml:space="preserve">
<style type="text/css">
	.st0{fill:#FFFFFF;}
	.st1{fill:#FFFFFF;stroke:#000000;stroke-width:5;stroke-miterlimit:10;}
</style>
<path d="M334.7,187.6c0,0-54-62.4-155.1-69.1C81.7,112,32.5,145,11.6,187.6S55.5,278,116.1,295.4c59,16.9,116.6,35.8,145.5,16.9
	c22.4-14.7-1.6-28.1-4-43.4c-2.4-15.3,41-16.1,41-16.1s52.9,0.6,53.9-24.1C353.3,205.1,334.7,187.6,334.7,187.6z"/>
<ellipse transform="matrix(0.9921 -0.1254 0.1254 0.9921 -16.8825 19.7188)" class="st0" cx="148.2" cy="144" rx="25.3" ry="13.8"/>
<ellipse transform="matrix(0.9921 -0.1254 0.1254 0.9921 -19.57 11.4252)" class="st0" cx="81" cy="161.2" rx="25.3" ry="13.8"/>
<ellipse transform="matrix(0.9921 -0.1254 0.1254 0.9921 -24.8271 7.6955)" class="st0" cx="48.7" cy="201.1" rx="25.3" ry="13.8"/>
<ellipse transform="matrix(0.9921 -0.1254 0.1254 0.9921 -29.9274 12.077)" class="st0" cx="81" cy="243.8" rx="25.3" ry="13.8"/>
<ellipse transform="matrix(0.9921 -0.1254 0.1254 0.9921 -32.0678 19.3777)" class="st0" cx="137.9" cy="264.5" rx="25.3" ry="13.8"/>
<path class="st1" d="M253.2,175.6c0,0,75.1-127.7,74.4-153.6c-23.9,17.1-82.1,117.7-90.7,145.7C247.8,173.7,253.2,175.6,253.2,175.6
	"/>
<path class="st1" d="M207.3,238.5c-0.1,0.7,0.7,1.1,1.3,0.6c4.3-4.3,13.5-10.6,19.6-15.8c8.9-7.5,13.2-19.4,6.4-27.3
	c-12-7.8-20.6,0.4-25,15.6C206.2,223.4,208.2,233.5,207.3,238.5z"/>
<polygon class="st1" points="239,198.8 253.2,175.6 236.9,167.8 226.6,192.2 "/>
</svg>
