<?xml version="1.0" encoding="utf-8"?>
<!-- Generator: Adobe Illustrator 24.2.1, SVG Export Plug-In . SVG Version: 6.00 Build 0)  -->
<svg version="1.1" id="Layer_1" xmlns="http://www.w3.org/2000/svg" xmlns:xlink="http://www.w3.org/1999/xlink" x="0px" y="0px"
	 viewBox="0 0 360 360" style="enable-background:new 0 0 360 360;" xml:space="preserve">
<style type="text/css">
	.st0{fill:#FFFFFF;}
</style>
<rect x="135.8" y="142.2" class="st0" width="91.8" height="64.2"/>
<rect x="293.3" y="173.2" class="st0" width="36" height="32.2"/>
<rect x="30.6" y="173.2" class="st0" width="36" height="32.2"/>
<rect x="150" y="260.3" class="st0" width="61.2" height="99.7"/>
<path d="M336.3,168.5c-1-20-11.8-35.7-24.9-35.7s-23.9,15.7-24.9,35.7h-0.1v35.9h-43.8v-65.8l-53.9-50.6V54.7h19.7V38.9h-19.7V17
	h-15.9v21.9H153v15.9h19.7v32.9l-54.1,50.8v65.8h-45v-35.9h-0.1c-1-20-11.8-35.7-24.9-35.7s-23.9,15.7-24.9,35.7h-0.1v35.9V360
	h125.2v-66.1c0-16.9,14-30.6,31.2-30.6s31.2,13.7,31.2,30.6V360h125.2V204.4L336.3,168.5L336.3,168.5z M48.7,200.4
	c-6.1,0-11.1-5-11.1-11.1c0-6.1,5-11.1,11.1-11.1s11.1,5,11.1,11.1C59.7,195.4,54.8,200.4,48.7,200.4z M169,197.4h-24.8v-31.6
	c0-8.1,5.5-14.6,12.4-14.6s12.4,6.6,12.4,14.6V197.4z M219,197.4h-24.8v-31.6c0-8.1,5.5-14.6,12.4-14.6s12.4,6.6,12.4,14.6V197.4z
	 M311.3,200.4c-6.1,0-11.1-5-11.1-11.1c0-6.1,5-11.1,11.1-11.1s11.1,5,11.1,11.1C322.4,195.4,317.5,200.4,311.3,200.4z"/>
</svg>
