<?xml version="1.0" encoding="utf-8"?>
<!-- Generator: Adobe Illustrator 24.2.1, SVG Export Plug-In . SVG Version: 6.00 Build 0)  -->
<svg version="1.1" id="Layer_1" xmlns="http://www.w3.org/2000/svg" xmlns:xlink="http://www.w3.org/1999/xlink" x="0px" y="0px"
	 viewBox="0 0 360 360" style="enable-background:new 0 0 360 360;" xml:space="preserve">
<style type="text/css">
	.st0{fill:#FFFFFF;}
</style>
<rect x="148.7" y="250.1" class="st0" width="63.4" height="109.9"/>
<polygon points="8.2,360 79.2,360 79.2,255.2 8.2,291.7 "/>
<path d="M173,22.2v19.4h-17.5v14.1H173v30.7l-93.7,72.1v92.4l0,0V360h0h7.9h66.2v-57.3c0-13.2,11.9-23.8,26.6-23.8
	c14.7,0,26.6,10.7,26.6,23.8V360h74.2V250.9v-92.4L187,86.3V55.7h17.5V41.6H187V22.2"/>
<polygon points="280.8,255.1 280.8,360 351.8,360 351.8,291.7 "/>
<path d="M174.2,86.3l-95,72.1v92.4l0,0V360h0h7.9h66.2v-45.1c0-13.2,11.9-26.3,26.6-26.3c14.7,0,26.6,13.1,26.6,26.3V360h74.2V250.9
	v-92.4l-95-72.1"/>
</svg>
