<?xml version="1.0" encoding="utf-8"?>
<!-- Generator: Adobe Illustrator 24.2.1, SVG Export Plug-In . SVG Version: 6.00 Build 0)  -->
<svg version="1.1" id="Layer_1" xmlns="http://www.w3.org/2000/svg" xmlns:xlink="http://www.w3.org/1999/xlink" x="0px" y="0px"
	 viewBox="0 0 360 360" style="enable-background:new 0 0 360 360;" xml:space="preserve">
<style type="text/css">
	.st0{fill:#FFFFFF;}
</style>
<rect x="44.8" y="50.9" class="st0" width="270.3" height="33.4"/>
<path d="M296,72.9H64c-10.6,0-19.2,8.6-19.2,19.2v42.8v44.7v179.5h270.3V179.6v-44.7V92C315.2,81.4,306.6,72.9,296,72.9z"/>
<path d="M296,0H64C53.4,0,44.8,8.6,44.8,19.2v37.2h270.3V19.2C315.2,8.6,306.6,0,296,0z"/>
<circle class="st0" cx="180" cy="216" r="96.4"/>
<circle cx="180" cy="216" r="84.8"/>
<path class="st0" d="M233.3,206c-7.3,0-13.8-3.8-17.6-9.5c-3.8,5.7-10.2,9.5-17.6,9.5c-7.5,0-14.1-4-17.8-9.9
	c-3.7,6-10.3,9.9-17.8,9.9c-6.7,0-12.7-3.2-16.6-8.1c-3.8,4.9-9.8,8.1-16.6,8.1c-7.7,0-14.4-4.2-18.1-10.3
	c-1.9,6.4-2.9,13.3-2.9,20.3c0,39.5,32.1,71.6,71.6,71.6c39.5,0,71.6-32.1,71.6-71.6c0-6-0.8-11.9-2.2-17.5
	C245.6,203,239.8,206,233.3,206z"/>
<circle class="st0" cx="80.6" cy="28.2" r="14"/>
<circle class="st0" cx="120.3" cy="28.2" r="14"/>
<rect x="44.8" y="72.9" width="270.3" height="36.7"/>
</svg>
