<?xml version="1.0" encoding="utf-8"?>
<!-- Generator: Adobe Illustrator 24.2.1, SVG Export Plug-In . SVG Version: 6.00 Build 0)  -->
<svg version="1.1" id="Layer_1" xmlns="http://www.w3.org/2000/svg" xmlns:xlink="http://www.w3.org/1999/xlink" x="0px" y="0px"
	 viewBox="0 0 360 360" style="enable-background:new 0 0 360 360;" xml:space="preserve">
<style type="text/css">
	.st0{fill:#FFFFFF;}
	.st1{fill:#FFFFFF;stroke:#000000;stroke-width:5;stroke-miterlimit:10;}
</style>
<path d="M247.1,163.8c0,0-11.6-74.7-67.3-74.8s-67.5,74.6-67.5,74.6L79.7,359.7l99.8,0.1l99.8,0.1L247.1,163.8z"/>
<path class="st0" d="M179.4,277.1c-13.8,0-25,11.2-25,25v58h49.9v-58C204.4,288.2,193.2,277.1,179.4,277.1z"/>
<g>
	<polygon class="st1" points="205,135.1 319.2,26.9 296.1,3.8 188.8,118.9 	"/>
	<polygon class="st1" points="40.9,259.1 63.9,282.1 171.3,167.1 163.6,159.4 155.1,150.8 	"/>
	<polygon class="st1" points="205.5,153.3 189.3,169.5 297.5,283.7 320.6,260.6 	"/>
	<polygon class="st1" points="38.3,26.8 153.3,134.1 169.6,117.9 61.3,3.7 	"/>
	<circle class="st1" cx="180" cy="143.1" r="23.1"/>
</g>
</svg>
