<?xml version="1.0" encoding="utf-8"?>
<!-- Generator: Adobe Illustrator 24.2.1, SVG Export Plug-In . SVG Version: 6.00 Build 0)  -->
<svg version="1.1" id="Layer_1" xmlns="http://www.w3.org/2000/svg" xmlns:xlink="http://www.w3.org/1999/xlink" x="0px" y="0px"
	 viewBox="0 0 360 360" style="enable-background:new 0 0 360 360;" xml:space="preserve">
<style type="text/css">
	.st0{fill:#FFFFFF;}
</style>
<path d="M239.7,360c-30.5,0-30.5,0-65.3,0h-49.7H0V143.1V143v-13.6h13.7V143H28v-13.6h13.7V143H56v-13.6h13.7V143h0.1v54.5h37.4V108
	"/>
<polyline points="107.2,108 252.8,108 252.8,197.5 290.2,197.5 290.2,143 290.3,143 290.3,129.3 304,129.3 304,143 318.3,143 
	318.3,129.3 332,129.3 332,143 346.3,143 346.3,129.3 360,129.3 360,143 360,360 235.3,360 "/>
<path class="st0" d="M220.2,299.1c0-18.2-18-32.9-40.2-32.9c-22.2,0-40.2,14.7-40.2,32.9h0V360h80.4v-60.5
	C220.2,299.3,220.2,299.2,220.2,299.1z"/>
<rect x="91.3" y="61.3" width="20.3" height="20.3"/>
<rect x="248.4" y="61.3" width="20.3" height="20.3"/>
<rect x="169.8" y="61.3" width="20.3" height="20.3"/>
<rect x="209.1" y="61.3" width="20.3" height="20.3"/>
<rect x="130.6" y="61.3" width="20.3" height="20.3"/>
<rect x="91.3" y="81.7" width="177.4" height="26.3"/>
</svg>
