<?xml version="1.0" encoding="utf-8"?>
<!-- Generator: Adobe Illustrator 24.2.1, SVG Export Plug-In . SVG Version: 6.00 Build 0)  -->
<svg version="1.1" id="Layer_1" xmlns="http://www.w3.org/2000/svg" xmlns:xlink="http://www.w3.org/1999/xlink" x="0px" y="0px"
	 viewBox="0 0 360 360" style="enable-background:new 0 0 360 360;" xml:space="preserve">
<style type="text/css">
	.st0{fill:#FFFFFF;}
</style>
<g id="ktsEBH.tif">
	<g>
		<path d="M177.4,0.2c3.3,0,6.6,0,9.8,0c0.5,0.1,1,0.4,1.5,0.4c22.9,2.7,42,21.5,44.8,44.4c0.6,5.4,5,7.9,9.8,5.8
			c10.4-4.5,21.6-1.2,28.3,7.8c2.7,3.7,4.8,4.2,9,2.2c6.7-3.1,13.8-3.9,21-2.3c13.6,3,24.1,13.8,26.4,27
			c2.5,14.4-3.4,27.9-15.7,35.7c-2.3,1.4-4,3.1-3.8,6c0.3,3,2.1,4.6,4.8,5.7c2.8,1.2,5.6,2.4,8.2,4c18.2,11.1,27,32,22.9,54.3
			c-4.7,25.5-29.9,44.2-55.6,41.2c-2.5-0.3-4.9-0.9-7.4-1.1c-3.7-0.4-6,1.3-6.8,4.9c-0.2,0.7-0.3,1.4-0.5,2.1
			c-2.6,9-8.5,14.8-17.5,17.1c-8.9,2.3-16.7-0.3-23-6.9c-1.9-2-3.9-3.5-6.7-2.5c-2.9,1-4.1,3.4-4.2,6.4c-0.3,5.9-1.9,11.4-4.5,16.6
			c-0.4,0.8-0.7,1.9-0.6,2.9c1.7,14.2,3.6,28.3,5.3,42.5c1.3,10.8,2.8,21.5,3.9,32.3c0.8,7.8-4.4,13.3-12.2,13.3
			c-20.8,0-41.5,0-62.3,0c-7.9,0-12.9-5.4-12.2-13.3c0.9-10,2-20,3.1-30.1c1.4-13.6,3-27.2,4.4-40.8c0.1-0.9-0.1-2.1-0.6-2.8
			c-3.2-5.1-5.5-10.5-6.4-16.4c-0.4-2.6-2.4-4.7-4.8-4.7c-1.7,0-3.5,0.6-5,1.4c-8.1,4.2-16.7,5.8-25.6,4
			c-16.4-3.2-27-13.1-31.8-29.1c-1-3.4-2.7-4.7-6.3-4.8c-3-0.1-6.1-0.1-9.1-0.6C34.3,218.9,17,199.8,14.7,177
			c-2.2-21.9,9.7-43.1,30.6-52.4c7.2-3.2,14.7-4.6,22.5-4.4c2.4,0.1,4.2-1,5.4-3.1c1.2-2.1,0.9-4.2-0.5-6.1
			c-0.5-0.6-0.9-1.3-1.4-1.9c-6-9-8.4-18.8-6.5-29.4c4.6-26.7,32.7-41.1,57.1-29.4c4.8,2.3,8.5,0.2,9.3-5
			c3.1-20.4,14.3-34.4,33.5-41.8C168.7,1.8,173.1,1.2,177.4,0.2z M168.8,211.9C149,197.9,129.5,184,110,170.2
			c-0.1,0.5,0,0.8,0.1,0.9c17.4,24.5,34.9,48.9,52.2,73.5c0.6,0.8,0.9,2,0.8,2.9c-1.6,15.1-3.3,30.3-4.9,45.4
			c-1.5,14-3,27.9-4.5,41.9c-0.5,4.6-0.9,9.1-1.4,13.8c21.3,0,42.3,0,63.5,0c-0.6-4.9-1.2-9.7-1.8-14.5c-2.4-19.8-4.8-39.5-7.2-59.3
			c-2.8-22.6-5.5-45.2-8.4-67.9c-0.2-1.7,0.2-2.9,1.1-4.3c16.7-23.6,33.4-47.1,50-70.7c0.5-0.7,0.9-1.4,1.3-2
			c-0.1-0.1-0.2-0.2-0.3-0.3c-19.3,13.7-38.5,27.5-58.1,41.4c-2.8-16.3-5.4-32.2-8.1-48.2c-0.2,0-0.3,0-0.5,0
			C178.8,152.4,173.8,181.9,168.8,211.9z"/>
		<path d="M177.4,0.2c-4.3,1.1-8.8,1.7-12.9,3.2c-19.2,7.4-30.4,21.4-33.5,41.8c-0.8,5.2-4.5,7.3-9.3,5C97.4,38.6,69.3,53,64.7,79.6
			c-1.8,10.6,0.5,20.5,6.5,29.4c0.4,0.6,0.9,1.3,1.4,1.9c1.4,1.9,1.7,4,0.5,6.1c-1.2,2.1-2.9,3.2-5.4,3.1
			c-7.8-0.2-15.4,1.2-22.5,4.4c-20.8,9.3-32.8,30.5-30.6,52.4c2.3,22.8,19.6,41.9,43.5,45.7c3,0.5,6.1,0.5,9.1,0.6
			c3.6,0.1,5.2,1.4,6.3,4.8c4.8,16,15.4,25.9,31.8,29.1c8.9,1.8,17.5,0.2,25.6-4c1.5-0.8,3.4-1.4,5-1.4c2.5,0,4.4,2.1,4.8,4.7
			c1,6,3.2,11.4,6.4,16.4c0.5,0.8,0.7,1.9,0.6,2.8c-1.4,13.6-2.9,27.2-4.4,40.8c-1.1,10-2.2,20-3.1,30.1
			c-0.7,7.9,4.3,13.2,12.2,13.3c20.8,0,41.5,0,62.3,0c7.8,0,13-5.5,12.2-13.3c-1.1-10.8-2.6-21.5-3.9-32.3
			c-1.8-14.2-3.6-28.3-5.3-42.5c-0.1-0.9,0.1-2,0.6-2.9c2.6-5.2,4.2-10.7,4.5-16.6c0.1-3,1.3-5.3,4.2-6.4c2.9-1,4.8,0.5,6.7,2.5
			c6.3,6.6,14.1,9.2,23,6.9c9-2.3,14.9-8.1,17.5-17.1c0.2-0.7,0.3-1.4,0.5-2.1c0.8-3.6,3.1-5.3,6.8-4.9c2.5,0.3,4.9,0.9,7.4,1.1
			c25.6,3,50.8-15.7,55.6-41.2c4.1-22.3-4.6-43.1-22.9-54.3c-2.6-1.6-5.4-2.8-8.2-4c-2.7-1.1-4.6-2.8-4.8-5.7
			c-0.3-2.9,1.5-4.5,3.8-6c12.3-7.7,18.2-21.3,15.7-35.7c-2.3-13.2-12.8-24-26.4-27c-7.2-1.6-14.3-0.8-21,2.3c-4.3,2-6.3,1.5-9-2.2
			c-6.8-9.1-17.9-12.4-28.3-7.8c-4.8,2.1-9.2-0.4-9.8-5.8c-2.7-22.9-21.8-41.8-44.8-44.4c-0.5-0.1-1-0.3-1.5-0.4"/>
		<path class="st0" d="M168.8,211.9c5.1-30,10-59.5,15-89c0.2,0,0.3,0,0.5,0c2.7,15.9,5.4,31.9,8.1,48.2
			c19.6-14,38.9-27.7,58.1-41.4c0.1,0.1,0.2,0.2,0.3,0.3c-0.4,0.7-0.9,1.4-1.3,2c-16.7,23.6-33.3,47.2-50,70.7
			c-1,1.3-1.3,2.6-1.1,4.3c2.8,22.6,5.6,45.2,8.4,67.9c2.4,19.8,4.8,39.5,7.2,59.3c0.6,4.8,1.2,9.6,1.8,14.5c-21.2,0-42.2,0-63.5,0
			c0.5-4.7,0.9-9.3,1.4-13.8c1.5-14,3-27.9,4.5-41.9c1.6-15.1,3.3-30.3,4.9-45.4c0.1-0.9-0.2-2.1-0.8-2.9
			c-17.4-24.5-34.8-49-52.2-73.5c-0.1-0.2-0.2-0.4-0.1-0.9C129.5,184,149,197.9,168.8,211.9z"/>
	</g>
</g>
</svg>
