<svg xmlns="http://www.w3.org/2000/svg" viewBox="0 0 256.45 360"><g id="Layer_1" data-name="Layer 1"><g id="GorED2.tif"><path d="M209.42,267.9H147c0-3,.06-6,0-8.91-.34-15.1.5-30.06,4.95-44.64s13.14-26.82,24.14-37.11c12.42-11.63,25.6-22.47,38.42-33.68,4.12-3.61,8.1-7.36,12.22-11,20.64-18.08,20.55-51.07-5.14-69.5-12.89-9.25-27.6-11.43-42.94-10.87C149.72,53.28,128.73,69.44,119,98.05c-1.52,4.45-2.72,9-4.19,13.9l-63-7.78c1.4-7.43,2.12-14.74,4.17-21.67,10.9-36.79,35.63-60.72,71-74,21.43-8,43.9-9.42,66.59-8,18.78,1.19,37,5,54,13.24C267.91,23.53,284.3,38,295.87,57.38c17.67,29.64,18,68.9-9.66,99.92-13.71,15.38-29.14,28.87-44.79,42.18-4.73,4-9.2,8.37-13.92,12.42-12.46,10.66-18,24.36-18.08,40.5C209.4,257.47,209.42,262.54,209.42,267.9Z" transform="translate(-51.77 0)"/><circle cx="128.23" cy="327.48" r="32.52"/></g></g></svg>